PathFileType	4	(X/Y/Z)	C:\Users\Biomechanik\SynologyDrive\AlexP\Athlete_03\Athlete_3_25_03_31\Static_01\marker_experimental.trc
DataRate	CameraRate	NumFrames	NumMarkers	Units	OrigDataRate	OrigDataStartFrame	OrigNumFrames
200	200	4	80	mm	200	139	37
Frame#	Time	BL			BR			GLAB			RFHD			LFHD			C7			T6			SPINMOL			SPINM2			SPINM3			T12			BELTOL			BELT2			BELT3			SACROL			SACR2			SACR3			LASI			RASI			LPSI			RPSI			LTHOL			LTH2			LTH3			LKNEL			LKNEM			LFIB			LSHAOL			LSHA2			LSHA3			LMALL			LMALM			LHEE			LTOE			LM5			RTHOL			RTH2			RTH3			RKNEL			RKNEM			RFIB			RSHAOL			RSHA2			RSHA3			RMALL			RMALM			RHEE			RTOE			RM5			STRN			XIPH			LACR			LUAOL			LUA2			LUA3			LCUBL			LCUBM			LLAOL			LLA2			LLA3			LWRR			LWRU			RACR			RUAOL			RUA2			RUA3			RCUBL			RCUBM			RLAOL			RLA2			RLA3			RWRR			RWRU			*73			LKJCWK			RKJCWK			RAJCWK			LAJCWK			RHJCWK			LHJCWK
		X1	Y1	Z1	X2	Y2	Z2	X3	Y3	Z3	X4	Y4	Z4	X5	Y5	Z5	X6	Y6	Z6	X7	Y7	Z7	X8	Y8	Z8	X9	Y9	Z9	X10	Y10	Z10	X11	Y11	Z11	X12	Y12	Z12	X13	Y13	Z13	X14	Y14	Z14	X15	Y15	Z15	X16	Y16	Z16	X17	Y17	Z17	X18	Y18	Z18	X19	Y19	Z19	X20	Y20	Z20	X21	Y21	Z21	X22	Y22	Z22	X23	Y23	Z23	X24	Y24	Z24	X25	Y25	Z25	X26	Y26	Z26	X27	Y27	Z27	X28	Y28	Z28	X29	Y29	Z29	X30	Y30	Z30	X31	Y31	Z31	X32	Y32	Z32	X33	Y33	Z33	X34	Y34	Z34	X35	Y35	Z35	X36	Y36	Z36	X37	Y37	Z37	X38	Y38	Z38	X39	Y39	Z39	X40	Y40	Z40	X41	Y41	Z41	X42	Y42	Z42	X43	Y43	Z43	X44	Y44	Z44	X45	Y45	Z45	X46	Y46	Z46	X47	Y47	Z47	X48	Y48	Z48	X49	Y49	Z49	X50	Y50	Z50	X51	Y51	Z51	X52	Y52	Z52	X53	Y53	Z53	X54	Y54	Z54	X55	Y55	Z55	X56	Y56	Z56	X57	Y57	Z57	X58	Y58	Z58	X59	Y59	Z59	X60	Y60	Z60	X61	Y61	Z61	X62	Y62	Z62	X63	Y63	Z63	X64	Y64	Z64	X65	Y65	Z65	X66	Y66	Z66	X67	Y67	Z67	X68	Y68	Z68	X69	Y69	Z69	X70	Y70	Z70	X71	Y71	Z71	X72	Y72	Z72	X73	Y73	Z73	X74	Y74	Z74	X75 	Y75 	Z75 	X76 	Y76 	Z76 	X77 	Y77 	Z77 	X78 	Y78 	Z78 	X79 	Y79 	Z79 	X80 	Y80 	Z80

140	0.695	960.7467	36.2266	-1933.5243	1063.1561	32.9283	86.6528	367.0817	1600.8992	-1186.6324	316.5819	1628.0082	-1124.3932	327.1555	1628.5801	-1259.9365	140.1694	1439.2109	-1206.375	nan	nan	nan	97.4341	1230.1805	-1238.9374	91.5152	1220.9406	-1189.531	104.5306	1165.7271	-1224.2225	120.7228	1102.1992	-1221.2377	92.6055	1081.0122	-1235.7024	92.2042	1077.8668	-1185.4852	85.5635	1018.4012	-1215.5732	101.4188	958.7973	-1240.1475	102.0281	956.7905	-1188.7401	83.3789	899.424	-1216.1858	332.3199	935.0625	-1331.6293	323.5752	926.3359	-1084.3793	114.1521	976.1182	-1258.9635	114.5469	967.348	-1174.3947	191.7426	683.2155	-1401.2388	142.364	629.8892	-1368.48	188.5022	623.4141	-1387.3916	236.7982	487.5213	-1383.7684	254.7567	462.0921	-1264.3572	194.132	425.5456	-1388.604	160.0845	328.549	-1404.0968	110.7842	267.107	-1391.0018	159.6833	266.7365	-1402.3198	142.7304	81.3192	-1381.6022	183.5519	89.6983	-1295.786	94.9397	67.3753	-1318.3911	309.8752	47.7522	-1348.6643	253.0494	31.1524	-1443.6051	158.9742	696.5128	-1025.6918	209.5132	637.9692	-1005.8051	166.2776	635.258	-1030.735	200.1139	496.3585	-1026.8809	238.2402	464.2836	-1148.3776	153.2814	432.6219	-1029.7952	118.9695	346.8337	-1019.6542	148.6519	275.6354	-1004.1616	107.3469	286.4073	-1029.7189	124.8762	85.0527	-1041.8322	188.9887	95.5241	-1114.605	90.6276	63.4807	-1115.057	292.679	47.6171	-1043.7589	216.4345	39.4439	-964.2413	322.1457	1365.7135	-1201.7726	352.9034	1220.0857	-1203.9495	200.7302	1435.8955	-1352.3607	167.5334	1411.5267	-1491.0044	156.4408	1387.3816	-1551.6144	199.9517	1414.8427	-1548.327	181.7991	1402.9293	-1655.8685	254.4405	1312.432	-1654.4569	179.9375	1377.8752	-1746.749	173.0477	1318.8254	-1799.8973	185.2551	1367.3081	-1807.7045	198.7175	1358.7064	-1912.0032	277.7724	1355.2949	-1904.2775	200.78	1429.5482	-1061.7578	157.6639	1411.5117	-939.5045	175.2797	1408.6631	-875.8939	128.6089	1388.8207	-885.747	151.2852	1390.8364	-771.1094	207.4355	1295.3217	-771.5712	140.074	1370.7184	-672.1292	156.9655	1412.5555	-606.056	139.649	1365.0472	-609.848	152.0195	1376.186	-517.5561	229.9258	1351.2042	-505.7097	99.9779	1266.8309	-1216.6501	245.7774	474.8067	-1324.0628	219.177	480.321	-1087.6292	155.2515	79.7554	-1077.9644	160.9017	74.959	-1339.0906	264.9319	851.1716	-1123.9754	271.2162	857.443	-1301.660
141	0.7	960.7477	36.2337	-1933.5112	1063.1516	32.9278	86.6449	367.1334	1600.9493	-1186.6244	316.6576	1627.9769	-1124.3226	327.2591	1628.5657	-1259.8798	140.211	1439.2075	-1206.3541	nan	nan	nan	97.4922	1230.2056	-1238.92	91.5982	1220.9386	-1189.5181	104.6158	1165.7091	-1224.2214	120.8093	1102.1989	-1221.2296	92.8541	1081.0406	-1235.6404	92.2907	1077.8848	-1185.4739	85.6118	1018.4169	-1215.6053	101.4997	958.8104	-1240.1356	102.0836	956.7931	-1188.7606	83.4336	899.4445	-1216.1686	332.4021	935.0464	-1331.5978	323.6449	926.3101	-1084.3966	114.2461	976.1378	-1258.9702	114.6207	967.3654	-1174.3857	191.764	683.2249	-1401.2538	142.3715	629.9201	-1368.4943	188.5325	623.4246	-1387.3856	236.773	487.5434	-1383.7444	254.7402	462.0743	-1264.3602	194.1171	425.5459	-1388.598	160.0608	328.5586	-1404.0886	110.7777	267.1024	-1390.9921	159.6706	266.7523	-1402.3219	142.7297	81.3236	-1381.6038	183.5655	89.7039	-1295.7737	94.9449	67.3839	-1318.3898	309.8759	47.7688	-1348.657	253.0536	31.1517	-1443.6285	159.0388	696.525	-1025.6727	209.541	637.9547	-1005.7974	166.313	635.2578	-1030.7408	200.1423	496.3662	-1026.8776	238.2603	464.2401	-1148.3707	153.3049	432.6273	-1029.8152	118.9783	346.8499	-1019.66	148.6764	275.6378	-1004.1595	107.3536	286.4072	-1029.7166	124.8808	85.0546	-1041.828	188.9906	95.544	-1114.6398	90.6506	63.4664	-1115.0513	292.6883	47.6215	-1043.7491	216.4444	39.4668	-964.2133	322.2196	1365.6978	-1201.7534	352.9771	1220.0864	-1203.9237	200.789	1435.8899	-1352.3254	167.5798	1411.5291	-1490.9784	156.4392	1387.1434	-1551.5525	199.9822	1414.8362	-1548.3137	181.8731	1402.9438	-1655.8367	254.4769	1312.4542	-1654.455	179.9705	1377.9241	-1746.726	173.0781	1318.8656	-1799.8531	185.2752	1367.323	-1807.6768	198.759	1358.7421	-1911.9619	277.781	1355.2986	-1904.2737	200.8444	1429.5486	-1061.7542	157.6899	1411.524	-939.5153	175.3345	1408.6956	-875.8907	128.649	1388.8361	-885.7395	151.3081	1390.8367	-771.1139	207.475	1295.3237	-771.5618	140.103	1370.7198	-672.132	156.9779	1412.5708	-606.0729	139.6719	1365.0785	-609.8246	152.0412	1376.2188	-517.5389	229.9325	1351.2383	-505.6923	99.6928	1266.9783	-1216.7084	245.7566	474.8089	-1324.0523	219.2013	480.3032	-1087.6241	155.2541	79.7664	-1077.9803	160.9089	74.9639	-1339.0854	264.989	851.1578	-1123.9757	271.2836	857.4374	-1301.660
142	0.705	960.7464	36.2298	-1933.5151	1063.1523	32.9327	86.6472	367.3091	1600.7772	-1186.4436	316.744	1627.9552	-1124.2986	327.3564	1628.5402	-1259.8217	140.2738	1439.2026	-1206.3329	nan	nan	nan	97.5706	1230.1963	-1238.9088	91.6778	1220.9481	-1189.5048	104.6921	1165.7102	-1224.2103	120.8997	1102.2009	-1221.2356	92.8165	1081.042	-1235.6523	92.3584	1077.8783	-1185.4722	85.747	1018.4304	-1215.5621	101.5779	958.8365	-1240.1134	102.1395	956.817	-1188.7373	83.4919	899.4775	-1216.1534	332.4781	935.0388	-1331.5881	323.7144	926.2792	-1084.4198	114.3388	976.158	-1258.955	114.6992	967.3828	-1174.3857	191.8214	683.2893	-1401.23	142.3965	629.942	-1368.4753	188.5527	623.4225	-1387.3706	236.7717	487.5454	-1383.7391	254.7284	462.079	-1264.3635	194.1053	425.56	-1388.5629	160.0414	328.5776	-1404.0837	110.7656	267.1103	-1390.9891	159.6605	266.7541	-1402.3226	142.7242	81.3359	-1381.5969	183.5676	89.6939	-1295.7627	94.9349	67.3945	-1318.397	309.8695	47.7605	-1348.6501	253.051	31.176	-1443.616	159.0682	696.537	-1025.6779	209.5699	637.9629	-1005.7821	166.3492	635.2581	-1030.731	200.1679	496.3632	-1026.8854	238.2722	464.26	-1148.3789	153.3206	432.6243	-1029.8248	118.9875	346.8626	-1019.6597	148.6717	275.6636	-1004.1794	107.3574	286.4159	-1029.718	124.8797	85.0506	-1041.8344	188.9906	95.5494	-1114.6128	90.5448	63.5801	-1115.0648	292.6846	47.6191	-1043.7612	216.4402	39.4854	-964.2073	322.2715	1365.7115	-1201.7327	353.0486	1220.1039	-1203.9049	200.8363	1435.8927	-1352.2949	167.6177	1411.5338	-1490.9525	156.4614	1387.1416	-1551.5479	200.0153	1414.8492	-1548.2935	181.8767	1402.963	-1655.8203	254.5132	1312.4724	-1654.434	179.9541	1377.9425	-1746.7097	173.1087	1318.8821	-1799.8367	185.2943	1367.3484	-1807.6484	198.7849	1358.7756	-1911.928	277.7767	1355.3325	-1904.2557	200.89	1429.5421	-1061.7467	157.7262	1411.5153	-939.5048	175.3443	1408.6881	-875.8989	128.6547	1388.866	-885.7296	151.3425	1390.8496	-771.1019	207.4966	1295.2998	-771.5751	140.1228	1370.7336	-672.1326	156.992	1412.598	-606.0438	139.6725	1365.1074	-609.8201	152.0272	1376.2513	-517.5343	229.9516	1351.2659	-505.6692	99.7557	1266.9674	-1216.7057	245.7501	474.8122	-1324.0513	219.2201	480.3116	-1087.6321	155.2531	79.7672	-1077.9695	160.9073	74.9649	-1339.0762	265.0453	851.1412	-1123.9924	271.3454	857.4383	-1301.676
143	0.71	960.7582	36.2114	-1933.5139	1063.1666	32.9467	86.6509	367.1516	1600.8663	-1186.6865	316.8092	1627.9103	-1124.2672	327.5507	1628.6624	-1259.949	140.3232	1439.1968	-1206.309	nan	nan	nan	97.6421	1230.1884	-1238.8986	91.7532	1220.9497	-1189.4844	104.7757	1165.6917	-1224.2124	120.9846	1102.1932	-1221.2274	93.104	1081.0895	-1235.5771	92.4303	1077.8829	-1185.4773	85.8868	1018.3972	-1215.4817	101.6627	958.8546	-1240.1167	102.2645	956.8328	-1188.7363	83.5838	899.5033	-1216.132	332.5523	935.024	-1331.5797	323.7958	926.2567	-1084.436	114.4312	976.1459	-1258.9313	114.7715	967.3868	-1174.3671	191.8259	683.1994	-1401.2273	142.4109	629.969	-1368.4762	188.5812	623.4178	-1387.3531	236.7548	487.5496	-1383.7295	254.7157	462.09	-1264.3632	194.0818	425.5693	-1388.556	160.0371	328.5767	-1404.0687	110.7533	267.113	-1390.9825	159.6471	266.7724	-1402.322	142.7372	81.3177	-1381.594	183.5758	89.7011	-1295.7723	94.9483	67.4012	-1318.3918	309.8658	47.7416	-1348.6488	253.0512	31.1587	-1443.6091	159.1083	696.5296	-1025.668	209.5963	637.9596	-1005.7758	166.3798	635.2661	-1030.72	200.1832	496.3597	-1026.8837	238.2856	464.2481	-1148.3899	153.3431	432.6366	-1029.8195	118.9991	346.8584	-1019.6573	148.6883	275.6587	-1004.1728	107.3702	286.4247	-1029.7102	124.8907	85.0573	-1041.8358	189.0065	95.5135	-1114.6111	90.6162	63.5159	-1115.0586	292.6852	47.6158	-1043.7604	216.4563	39.4848	-964.2003	322.344	1365.7162	-1201.7045	353.1234	1220.0936	-1203.8821	200.8915	1435.9092	-1352.2732	167.6474	1411.5288	-1490.9423	156.5837	1387.1545	-1551.4651	200.008	1414.8368	-1548.3107	181.9151	1402.9766	-1655.8027	254.5711	1312.4553	-1654.4172	180.0763	1377.9696	-1746.6365	173.1343	1318.9121	-1799.801	185.3219	1367.3772	-1807.6122	198.7893	1358.7983	-1911.8972	277.7809	1355.3546	-1904.2484	200.9304	1429.5309	-1061.7296	157.7559	1411.5192	-939.5107	175.3964	1408.6722	-875.8777	128.6823	1388.8002	-885.6733	151.3812	1390.8599	-771.0965	207.4703	1295.3248	-771.5909	140.1429	1370.7461	-672.1284	156.9905	1412.61	-606.0551	139.7	1365.1278	-609.8229	152.237	1376.1505	-517.692	229.9402	1351.3354	-505.659	99.8354	1266.9565	-1216.6899	245.7353	474.8198	-1324.0463	219.2344	480.3039	-1087.6368	155.2665	79.7526	-1077.9692	160.9187	74.9593	-1339.0798	265.1198	851.1239	-1123.9975	271.4152	857.4272	-1301.681
